<svg width="115" height="71" fill="none" xmlns="http://www.w3.org/2000/svg"><path d="M29.028 70.152c-5.504 0-10.432-1.344-14.784-4.032-4.352-2.752-7.776-6.72-10.272-11.904C1.476 49.032.228 42.76.228 35.4c0-7.36 1.248-13.632 3.744-18.816 2.496-5.184 5.92-9.12 10.272-11.808C18.596 2.024 23.524.648 29.028.648c5.568 0 10.496 1.376 14.784 4.128 4.352 2.688 7.776 6.624 10.272 11.808 2.496 5.184 3.744 11.456 3.744 18.816 0 7.36-1.248 13.632-3.744 18.816-2.496 5.184-5.92 9.152-10.272 11.904-4.288 2.688-9.216 4.032-14.784 4.032zm0-13.152c2.624 0 4.896-.736 6.816-2.208 1.984-1.472 3.52-3.808 4.608-7.008 1.152-3.2 1.728-7.328 1.728-12.384s-.576-9.184-1.728-12.384c-1.088-3.2-2.624-5.536-4.608-7.008-1.92-1.472-4.192-2.208-6.816-2.208-2.56 0-4.832.736-6.816 2.208-1.92 1.472-3.456 3.808-4.608 7.008-1.088 3.2-1.632 7.328-1.632 12.384s.544 9.184 1.632 12.384c1.152 3.2 2.688 5.536 4.608 7.008C24.196 56.264 26.468 57 29.028 57zM86.24 70.152c-4.672 0-9.312-.608-13.92-1.824-4.608-1.28-8.512-3.072-11.712-5.376l6.048-11.904c2.56 1.856 5.536 3.328 8.928 4.416 3.392 1.088 6.816 1.632 10.272 1.632 3.904 0 6.976-.768 9.216-2.304 2.24-1.536 3.36-3.648 3.36-6.336 0-2.56-.992-4.576-2.976-6.048-1.984-1.472-5.184-2.208-9.6-2.208h-7.104V29.928l18.72-21.216L99.2 14.28H63.967V1.8h47.04v10.08L92.383 33.096l-7.872-4.512h4.512c8.256 0 14.496 1.856 18.72 5.568 4.224 3.712 6.336 8.48 6.336 14.304 0 3.776-.992 7.328-2.976 10.656-1.984 3.264-5.024 5.92-9.12 7.968-4.096 2.048-9.344 3.072-15.744 3.072z" fill="#E4E4E4"/></svg>