<svg width="127" height="71" fill="none" xmlns="http://www.w3.org/2000/svg"><path d="M28.872 70.152c-5.504 0-10.432-1.344-14.784-4.032-4.352-2.752-7.776-6.72-10.272-11.904C1.32 49.032.072 42.76.072 35.4c0-7.36 1.248-13.632 3.744-18.816 2.496-5.184 5.92-9.12 10.272-11.808C18.44 2.024 23.368.648 28.872.648c5.568 0 10.496 1.376 14.784 4.128 4.352 2.688 7.776 6.624 10.272 11.808 2.496 5.184 3.744 11.456 3.744 18.816 0 7.36-1.248 13.632-3.744 18.816-2.496 5.184-5.92 9.152-10.272 11.904-4.288 2.688-9.216 4.032-14.784 4.032zm0-13.152c2.624 0 4.896-.736 6.816-2.208 1.984-1.472 3.52-3.808 4.608-7.008 1.152-3.2 1.728-7.328 1.728-12.384s-.576-9.184-1.728-12.384c-1.088-3.2-2.624-5.536-4.608-7.008-1.92-1.472-4.192-2.208-6.816-2.208-2.56 0-4.832.736-6.816 2.208-1.92 1.472-3.456 3.808-4.608 7.008-1.088 3.2-1.632 7.328-1.632 12.384s.544 9.184 1.632 12.384c1.152 3.2 2.688 5.536 4.608 7.008C24.04 56.264 26.312 57 28.872 57zm35.588-2.112V44.424L96.14 1.8h16.32L81.452 44.424l-7.584-2.208h52.896v12.672H64.46zM100.652 69V54.888l.48-12.672V29.64h14.688V69h-15.168z" fill="#E4E4E4"/></svg>