<svg width="91" height="71" fill="none" xmlns="http://www.w3.org/2000/svg"><path d="M28.857 70.152c-5.505 0-10.433-1.344-14.784-4.032C9.72 63.368 6.295 59.4 3.8 54.216S.057 42.76.057 35.4c0-7.36 1.248-13.632 3.744-18.816C6.296 11.4 9.72 7.464 14.072 4.776 18.425 2.024 23.352.648 28.858.648c5.568 0 10.495 1.376 14.784 4.128 4.352 2.688 7.776 6.624 10.272 11.808 2.495 5.184 3.744 11.456 3.744 18.816 0 7.36-1.248 13.632-3.744 18.816-2.496 5.184-5.92 9.152-10.272 11.904-4.288 2.688-9.216 4.032-14.784 4.032zm0-13.152c2.623 0 4.895-.736 6.816-2.208 1.983-1.472 3.52-3.808 4.608-7.008 1.151-3.2 1.727-7.328 1.727-12.384s-.576-9.184-1.727-12.384c-1.088-3.2-2.624-5.536-4.608-7.008-1.92-1.472-4.193-2.208-6.817-2.208-2.56 0-4.832.736-6.816 2.208-1.92 1.472-3.456 3.808-4.607 7.008-1.088 3.2-1.633 7.328-1.633 12.384s.544 9.184 1.633 12.384c1.151 3.2 2.688 5.536 4.608 7.008C24.024 56.264 26.297 57 28.857 57zm46.349 12V7.56l6.72 6.72h-20.16V1.8h28.992V69H75.206z" fill="#E4E4E4"/></svg>