<svg width="116" height="71" fill="none" xmlns="http://www.w3.org/2000/svg"><path d="M28.84 70.152c-5.503 0-10.431-1.344-14.783-4.032C9.705 63.368 6.28 59.4 3.785 54.216 1.289 49.032.04 42.76.04 35.4c0-7.36 1.248-13.632 3.744-18.816C6.28 11.4 9.705 7.464 14.057 4.776 18.409 2.024 23.337.648 28.84.648c5.568 0 10.496 1.376 14.784 4.128C47.977 7.464 51.4 11.4 53.897 16.584 56.393 21.768 57.64 28.04 57.64 35.4c0 7.36-1.248 13.632-3.744 18.816-2.496 5.184-5.92 9.152-10.272 11.904-4.288 2.688-9.216 4.032-14.784 4.032zm0-13.152c2.625 0 4.897-.736 6.817-2.208 1.984-1.472 3.52-3.808 4.608-7.008 1.152-3.2 1.728-7.328 1.728-12.384s-.576-9.184-1.728-12.384c-1.088-3.2-2.624-5.536-4.608-7.008-1.92-1.472-4.192-2.208-6.816-2.208-2.56 0-4.832.736-6.816 2.208-1.92 1.472-3.456 3.808-4.608 7.008-1.088 3.2-1.632 7.328-1.632 12.384s.544 9.184 1.632 12.384c1.152 3.2 2.688 5.536 4.608 7.008C24.009 56.264 26.28 57 28.84 57zm35.406 12V58.92l25.92-24.48c2.048-1.856 3.552-3.52 4.512-4.992.96-1.472 1.6-2.816 1.92-4.032.384-1.216.576-2.336.576-3.36 0-2.688-.928-4.736-2.784-6.144-1.792-1.472-4.448-2.208-7.968-2.208-2.816 0-5.44.544-7.872 1.632-2.368 1.088-4.384 2.784-6.048 5.088l-11.328-7.296c2.56-3.84 6.144-6.88 10.752-9.12 4.608-2.24 9.92-3.36 15.936-3.36 4.992 0 9.344.832 13.056 2.496 3.776 1.6 6.688 3.872 8.736 6.816 2.112 2.944 3.168 6.464 3.168 10.56 0 2.176-.288 4.352-.864 6.528-.512 2.112-1.6 4.352-3.264 6.72-1.6 2.368-3.968 5.024-7.104 7.968L80.086 61.992l-2.976-5.664h37.92V69H64.246z" fill="#E4E4E4"/></svg>