<svg width="56" height="56" fill="none" xmlns="http://www.w3.org/2000/svg"><g clip-path="url(#clip0_86_1098)" fill="#828282"><path d="M28.003 42.704c.786 0 1.424-.638 1.424-1.424V17.495l6.925 5.01A1.424 1.424 0 0038.02 20.2l-9.184-6.643a1.418 1.418 0 00-1.667 0L17.987 20.2a1.422 1.422 0 001.668 2.304l6.924-5.008V41.28a1.425 1.425 0 001.424 1.424z"/><path d="M28.003 0a27.802 27.802 0 00-16.27 5.22 1.427 1.427 0 00.562 2.63c.394.048.79-.069 1.094-.324a25.13 25.13 0 11-6.582 6.927 1.424 1.424 0 00-2.4-1.534 28.006 28.006 0 003.134 34.197 27.997 27.997 0 0046.14-7.962A28 28 0 0028.003.001z"/></g><defs><clipPath id="clip0_86_1098"><path fill="#fff" d="M0 0h55.998v56H0z"/></clipPath></defs></svg>