<svg width="192" height="84" fill="none" xmlns="http://www.w3.org/2000/svg"><path d="M32.475 61.272c-2.15 0-3.88-.276-5.188-.827v-2.48c.74.275 1.531.499 2.375.671.86.172 1.712.258 2.555.258 1.326 0 2.315-.155 2.97-.465.67-.31 1.006-.93 1.006-1.86 0-.569-.138-1.025-.413-1.37-.276-.344-.732-.637-1.368-.878-.637-.259-1.515-.526-2.633-.801-1.79-.466-3.047-1.051-3.77-1.758-.722-.723-1.084-1.714-1.084-2.971 0-1.465.534-2.61 1.6-3.437 1.068-.827 2.66-1.24 4.777-1.24.963 0 1.867.068 2.71.206.86.138 1.532.293 2.014.465v2.48c-1.308-.499-2.754-.748-4.337-.748-1.24 0-2.203.163-2.891.49-.689.328-1.033.922-1.033 1.784 0 .5.12.904.361 1.214.241.31.654.577 1.24.801.602.224 1.428.474 2.478.75 1.36.344 2.41.758 3.15 1.24.756.465 1.281 1.016 1.574 1.654.31.62.465 1.326.465 2.119 0 1.464-.543 2.618-1.627 3.462-1.084.827-2.728 1.24-4.93 1.24zm9.285-.259V48.765h2.582l.13 1.292a7.355 7.355 0 011.987-1.137 6.466 6.466 0 012.324-.414c.877 0 1.557.147 2.039.44.5.275.878.663 1.136 1.162a7.326 7.326 0 011.962-1.137c.74-.31 1.626-.465 2.659-.465 1.411 0 2.452.362 3.123 1.086.672.723 1.007 1.834 1.007 3.333v8.088h-2.762V53.21c0-.947-.198-1.61-.594-1.99-.396-.378-1.041-.568-1.936-.568a4.6 4.6 0 00-1.678.31 3.626 3.626 0 00-1.342.93c.051.19.086.388.103.595.017.207.026.43.026.672v7.855h-2.608v-7.778c0-.896-.154-1.55-.464-1.964-.31-.413-.895-.62-1.756-.62-.602 0-1.178.146-1.73.44a6.584 6.584 0 00-1.445 1.007v8.915h-2.762zm25.553.259a5.653 5.653 0 01-2.169-.414 3.63 3.63 0 01-1.575-1.24c-.395-.569-.593-1.266-.593-2.093 0-1.172.395-2.11 1.187-2.817.81-.723 2.048-1.085 3.718-1.085h3.924v-.543c0-.586-.095-1.05-.285-1.395-.172-.345-.499-.595-.98-.75-.465-.155-1.154-.232-2.066-.232-1.445 0-2.796.215-4.053.646v-2.093c.551-.224 1.222-.405 2.014-.543a14.914 14.914 0 012.556-.207c1.79 0 3.15.362 4.078 1.086.947.723 1.42 1.903 1.42 3.54v7.881h-2.4l-.181-1.24c-.5.482-1.119.853-1.859 1.111-.723.259-1.635.388-2.736.388zm.748-2.016c.844 0 1.575-.138 2.195-.413.636-.293 1.153-.68 1.549-1.163v-2.145h-3.873c-.826 0-1.428.164-1.807.491-.361.31-.542.792-.542 1.447 0 .638.215 1.094.645 1.37.43.275 1.042.413 1.833.413zm9.549 1.757V48.765h2.581l.155 1.42a11.315 11.315 0 012.091-1.033 11.57 11.57 0 012.4-.646v2.145c-.481.086-1.006.215-1.574.388-.55.155-1.076.336-1.575.542-.499.19-.92.388-1.264.595v8.837H77.61zm13.95.259c-1.309 0-2.29-.345-2.943-1.034-.637-.706-.956-1.662-.956-2.868v-6.41h-1.807v-2.196h1.807v-2.817l2.788-.853v3.67h3.253l-.18 2.196h-3.073v6.254c0 .706.164 1.206.49 1.498.328.276.862.414 1.602.414a4.65 4.65 0 001.47-.258v1.99c-.67.275-1.488.413-2.451.413zm18.35 0c-2.736 0-4.81-.75-6.221-2.248-1.394-1.5-2.091-3.523-2.091-6.073 0-1.826.292-3.394.877-4.703.603-1.327 1.515-2.343 2.737-3.05 1.222-.723 2.779-1.085 4.672-1.085.964 0 1.842.078 2.633.233.809.138 1.558.327 2.246.568v2.455a11.04 11.04 0 00-2.22-.62 12.466 12.466 0 00-2.452-.233c-2.065 0-3.528.552-4.389 1.654-.843 1.103-1.265 2.696-1.265 4.78 0 1.948.465 3.43 1.394 4.446.93.999 2.367 1.498 4.311 1.498.792 0 1.584-.06 2.375-.18a11.57 11.57 0 002.272-.62v2.48c-.688.224-1.437.396-2.246.517-.791.12-1.669.18-2.633.18zm10.653 0c-.998 0-1.755-.241-2.271-.724-.517-.5-.775-1.318-.775-2.455V43.596h2.814v14.239c0 .482.086.81.258.982.172.172.43.258.775.258.413 0 .809-.051 1.187-.155v2.042c-.327.12-.645.198-.955.232a6.016 6.016 0 01-1.033.078zm10.385 0c-2.134 0-3.786-.526-4.956-1.576-1.171-1.051-1.756-2.662-1.756-4.833 0-1.964.499-3.514 1.497-4.651.999-1.137 2.513-1.706 4.544-1.706 1.859 0 3.253.491 4.182 1.473.947.965 1.42 2.214 1.42 3.747V56h-8.958c.138 1.189.568 2.007 1.291 2.455.723.448 1.824.672 3.304.672.62 0 1.256-.06 1.91-.18a9.29 9.29 0 001.704-.466v2.067a8.077 8.077 0 01-1.91.543c-.706.12-1.463.18-2.272.18zm-4.027-7.106h6.48v-.853c0-.844-.233-1.5-.697-1.964-.465-.483-1.248-.724-2.35-.724-1.308 0-2.211.285-2.71.853-.482.569-.723 1.464-.723 2.688zm15.518 7.106a5.653 5.653 0 01-2.169-.414 3.632 3.632 0 01-1.575-1.24c-.395-.569-.593-1.266-.593-2.093 0-1.172.396-2.11 1.187-2.817.809-.723 2.048-1.085 3.718-1.085h3.924v-.543c0-.586-.095-1.05-.284-1.395-.173-.345-.5-.595-.981-.75-.465-.155-1.153-.232-2.066-.232-1.445 0-2.796.215-4.053.646v-2.093c.551-.224 1.222-.405 2.014-.543a14.921 14.921 0 012.556-.207c1.79 0 3.149.362 4.078 1.086.947.723 1.42 1.903 1.42 3.54v7.881h-2.401l-.18-1.24c-.499.482-1.119.853-1.859 1.111-.723.259-1.635.388-2.736.388zm.748-2.016c.844 0 1.575-.138 2.195-.413.636-.293 1.153-.68 1.549-1.163v-2.145h-3.873c-.826 0-1.428.164-1.807.491-.361.31-.542.792-.542 1.447 0 .638.215 1.094.645 1.37.431.275 1.042.413 1.833.413zm9.549 1.757V48.765h2.581l.129 1.292a7.637 7.637 0 011.962-1.086c.775-.31 1.627-.465 2.556-.465 1.583 0 2.736.37 3.459 1.111.723.741 1.084 1.896 1.084 3.463v7.933h-2.788V53.21c0-.947-.198-1.61-.593-1.99-.379-.378-1.102-.568-2.169-.568-.637 0-1.265.13-1.884.388a4.787 4.787 0 00-1.523 1.008v8.966h-2.814z" fill="#0075FF"/><path fill-rule="evenodd" clip-rule="evenodd" d="M141.019 19.397H32.269C14.447 19.397 0 33.859 0 51.699S14.447 84 32.269 84H159.73C177.553 84 192 69.538 192 51.699c0-12.866-7.513-23.974-18.388-29.169a17.597 17.597 0 00-2.963 2.221c10.629 4.32 18.124 14.757 18.124 26.948 0 16.055-13.002 29.07-29.042 29.07H32.269c-16.04 0-29.042-13.015-29.042-29.07 0-16.056 13.002-29.072 29.042-29.072h120.476a16.853 16.853 0 00-5.121-2.072l-6.605-1.158z" fill="#0075FF"/><path d="M173.323 17.796l6.123 1.125-6.17 1.073c-4.592 1.023-8.132 4.91-8.993 9.819l-1.148 8.028-1.196-8.028c-.861-4.91-4.401-8.796-8.993-9.819l-6.123-1.073 6.171-1.074c4.592-1.023 8.132-4.91 8.993-9.819L163.183 0l1.196 8.028c.813 4.91 4.352 8.796 8.944 9.768z" fill="#0075FF"/></svg>