<svg width="22" height="24" fill="none" xmlns="http://www.w3.org/2000/svg"><path d="M8.6 10.394a2.4 2.4 0 014.8 0 2.4 2.4 0 01-4.8 0z" fill="#0075FF"/><path fill-rule="evenodd" clip-rule="evenodd" d="M.6 10.394C.6 4.654 5.258 0 11 0s10.4 4.654 10.4 10.394c0 4.278-2.141 7.668-4.434 9.96A17.396 17.396 0 0113.58 23c-.515.304-.997.543-1.415.708-.396.156-.81.277-1.166.277-.355 0-.77-.121-1.166-.277-.418-.165-.9-.404-1.415-.708a17.392 17.392 0 01-3.385-2.646C2.741 18.062.6 14.671.6 10.393zM11 6.396a4 4 0 00-4 3.998 4 4 0 008 0 4 4 0 00-4-3.998z" fill="#0075FF"/></svg>