<svg width="16" height="16" fill="none" xmlns="http://www.w3.org/2000/svg"><path fill-rule="evenodd" clip-rule="evenodd" d="M1.863 2.362c.88-.927 1.191-1.187 1.566-1.308a1.65 1.65 0 01.793-.011c.344.1.435.176 1.563 1.3.991.987 1.09 1.094 1.185 1.287.182.339.21.739.078 1.1-.1.275-.242.457-.843 1.06l-.392.393a.34.34 0 00-.06.394 10.123 10.123 0 003.59 3.6.445.445 0 00.52-.073l.377-.371a8.58 8.58 0 01.74-.674c.407-.25.914-.272 1.341-.059.21.1.278.162 1.3 1.182 1.054 1.051 1.084 1.084 1.2 1.325a1.32 1.32 0 01-.006 1.279c-.113.224-.182.305-.775.911-.358.366-.695.7-.749.749a2.444 2.444 0 01-1.75.554 7.966 7.966 0 01-3.285-1.049 15.083 15.083 0 01-5.514-5c-.303-.44-.572-.902-.806-1.382A6.872 6.872 0 011 4.029c.048-.65.36-1.253.863-1.667z" fill="#0075FF" stroke="#0075FF" stroke-width=".5" stroke-linecap="round" stroke-linejoin="round"/></svg>