<svg width="80" height="80" fill="none" xmlns="http://www.w3.org/2000/svg"><path d="M59.141 49.945L70.273 5.77a1.334 1.334 0 00-2.586-.653l-11.13 44.166c-4.315.046-8.142 5.024-9.355 9.84-.051.207-.036.417.011.622l-3.85 9.214a1.336 1.336 0 00.906 1.809l4.1 1.035c.3.073.618.044.898-.088l1.862-.885-.068.275c-.18.715.253 1.44.967 1.62l7.756 1.957a1.333 1.333 0 001.653-1.162l.98-9.938a1.33 1.33 0 00.304-.543c1.25-4.97.029-11.092-3.58-13.093zm-.207 21.77l-4.963-1.252.436-1.725a1.331 1.331 0 00-1.864-1.531l-3.984 1.891-2.137-.538 3.12-7.471 3.52.887 6.665 1.684-.793 8.055zm1.462-10.64l-10.213-2.577c1.435-3.944 4.667-7.082 7.061-6.475 2.41.606 3.788 4.803 3.151 9.052zM42 21.757c-2.206 0-4-1.795-4-4.003a1.333 1.333 0 10-2.667 0 4.005 4.005 0 01-4 4.003 1.333 1.333 0 000 2.669c2.207 0 4 1.795 4 4.003a1.333 1.333 0 102.667 0 4.005 4.005 0 014-4.003 1.333 1.333 0 000-2.669zm-5.333 2.673a6.752 6.752 0 00-1.338-1.339 6.789 6.789 0 001.338-1.339c.38.507.83.958 1.338 1.34a6.746 6.746 0 00-1.338 1.338zm40 33.356c-2.207 0-4-1.795-4-4.004a1.333 1.333 0 10-2.667 0 4.005 4.005 0 01-4 4.004 1.333 1.333 0 100 2.668c2.206 0 4 1.795 4 4.004a1.333 1.333 0 102.667 0 4.005 4.005 0 014-4.004 1.333 1.333 0 000-2.668zm-5.334 2.673a6.749 6.749 0 00-1.338-1.339 6.792 6.792 0 001.338-1.339c.381.506.83.958 1.338 1.339a6.746 6.746 0 00-1.338 1.339zM38 44.442H12.667v-8.007a2.67 2.67 0 012.666-2.669A2.67 2.67 0 0118 36.437a1.333 1.333 0 102.667 0 5.341 5.341 0 00-5.334-5.338A5.341 5.341 0 0010 36.435v8.007H3.333c-.737 0-1.333.597-1.333 1.334v21.35c0 .737.596 1.335 1.333 1.335h1.334v2.669H3.333a1.333 1.333 0 000 2.668H38a1.333 1.333 0 000-2.668h-1.333v-2.67H38c.737 0 1.333-.597 1.333-1.334v-21.35c0-.737-.596-1.334-1.333-1.334zM4.667 65.792V47.111h14.666v18.681H4.667zM34 71.13H7.333v-2.67H34v2.67zm2.667-5.338H22V47.111h14.667v18.681z" fill="#828282"/><path d="M16.667 52.448c-.738 0-1.334.598-1.334 1.334v5.338a1.333 1.333 0 102.667 0v-5.338c0-.736-.596-1.334-1.333-1.334zm8 8.006c.737 0 1.333-.597 1.333-1.334v-5.338a1.333 1.333 0 10-2.667 0v5.338c0 .737.596 1.334 1.334 1.334zM3.333 25.76h24a1.333 1.333 0 100-2.669h-6.666v-4.003c0-.736-.596-1.334-1.334-1.334h-8c-.737 0-1.333.598-1.333 1.334v4.003H3.333a1.333 1.333 0 000 2.67zm9.334-5.338H18v2.67h-5.333v-2.67zM46 25.76h1.333v5.527c-2.293.596-4 2.669-4 5.148a5.341 5.341 0 005.334 5.338A5.341 5.341 0 0054 36.435c0-2.48-1.707-4.55-4-5.148V25.76h6.667a1.333 1.333 0 000-2.669H46a1.333 1.333 0 000 2.67zm5.333 10.675a2.67 2.67 0 01-2.666 2.669A2.67 2.67 0 0146 36.435a2.67 2.67 0 012.667-2.669 2.67 2.67 0 012.666 2.67z" fill="#828282"/></svg>