<svg width="40" height="40" fill="none" xmlns="http://www.w3.org/2000/svg"><path d="M32.878 22.161L29.268 20c-.009-.005-.015-.012-.023-.017l-2.88-1.722-.008-.004-.367-.22a.722.722 0 00-.946.188l-.01.013-.519-1.572c1.05-1.197 1.735-2.91 1.814-4.831 1.1-.872 1.974-2.436 2.084-3.814.083-1.02-.23-1.88-.904-2.484-.261-.233-.562-.368-.826-.486-.194-.086-.394-.176-.475-.267-.094-.105-.185-.312-.272-.513-.1-.23-.213-.49-.38-.727-.745-1.05-1.836-1.532-3.163-1.4-2.982.308-6.027.55-9.05.718a.72.72 0 00-.677.665c-.433 5.71 1.902 7.762 2.925 8.381.094 1.89.773 3.574 1.81 4.755l-.518 1.572-.011-.013a.721.721 0 00-.946-.187l-.367.22-.009.003-2.88 1.722c-.008.005-.014.012-.021.017l-3.61 2.162c-2.003 1.198-3.2 3.212-3.2 5.39v9.882c0 .398.323.72.72.72h28.797a.72.72 0 00.72-.72v-9.883c0-2.177-1.196-4.191-3.198-5.387zm-16.24-2.099c.021.018.045.034.068.052.013.013.021.028.035.039.11.088.225.169.339.25.024.016.045.034.069.05a6.464 6.464 0 00.572.349c.174.094.352.18.535.258.052.022.104.04.157.061.145.059.292.112.44.16.058.02.117.036.176.054.153.045.309.084.466.118l.154.033c.185.035.372.063.56.084l.072.01c.224.021.45.036.676.036.226 0 .452-.015.676-.037.025-.002.048-.006.073-.009.188-.02.375-.049.56-.084a6.437 6.437 0 00.62-.152c.059-.017.117-.033.175-.052a6.69 6.69 0 00.441-.16c.053-.021.106-.04.158-.062a6.42 6.42 0 00.535-.259l.026-.012c.187-.103.368-.215.545-.336.024-.017.045-.035.07-.051.114-.081.229-.162.338-.25.014-.011.022-.026.036-.039.021-.018.045-.033.066-.051v5.12h-8.639l.001-5.12zm2.11-2.27c.081.046.163.09.246.133.084.041.166.082.25.118.136.058.272.108.412.153.035.01.07.024.105.035.386.114.786.179 1.197.179a4.22 4.22 0 001.198-.18c.035-.01.07-.024.105-.035a4.277 4.277 0 00.907-.404c.056-.032.116-.057.172-.093l.533 1.615-.04.029c-1.678 1.074-4.07 1.074-5.75 0l-.04-.029.534-1.615c.055.036.115.06.171.093zM14.064 4.263c2.834-.168 5.682-.398 8.476-.685.798-.083 1.402.179 1.841.799.08.114.156.285.234.466.127.292.27.623.52.9.287.321.661.488.961.622.185.082.36.16.452.244.331.296.476.732.43 1.293-.05.64-.355 1.368-.776 1.972a8.362 8.362 0 00-.445-1.585.72.72 0 00-1.088-.324c-.966.689-2.386.52-3.17-.37a.743.743 0 00-1.082 0c-.784.89-2.205 1.059-3.17.37a.717.717 0 00-1.088.324 8.46 8.46 0 00-.484 1.86c-.769-.792-1.747-2.477-1.61-5.886zm3.183 5.33c1.213.47 2.673.258 3.71-.54 1.037.798 2.497 1.01 3.711.54a7.41 7.41 0 01.235 1.87c0 1.85-.66 3.485-1.665 4.484-.013.01-.028.018-.04.03-1.332 1.297-3.148 1.297-4.48 0-.013-.012-.028-.02-.04-.03-1.006-.999-1.665-2.633-1.665-4.483 0-.648.078-1.274.234-1.871zM7.279 27.548c0-1.665.933-3.216 2.497-4.15l2.543-1.522v3.43a2.165 2.165 0 00-1.44 2.038v9.366h-3.6v-9.162zm5.04 9.162v-9.366a.72.72 0 01.72-.72.72.72 0 00.72-.721v-4.89l1.44-.863v5.753c0 .398.322.72.72.72h10.078a.72.72 0 00.72-.72V20.15l1.44.862v4.89c0 .398.322.72.72.72.192 0 .37.075.512.221a.69.69 0 01.207.5v9.366H12.32zm22.317 0h-3.6v-9.366c0-.585-.228-1.129-.628-1.518a2.098 2.098 0 00-.812-.52v-3.431l2.543 1.522c1.563.935 2.497 2.486 2.497 4.151v9.162z" fill="#828282"/><path d="M6.56 20.14a.72.72 0 00.72-.72c0-1.193.968-2.162 2.16-2.162a.72.72 0 000-1.441c-1.192 0-2.16-.97-2.16-2.162a.72.72 0 10-1.44 0 2.162 2.162 0 01-2.16 2.162.72.72 0 100 1.44c1.191 0 2.16.97 2.16 2.162 0 .398.322.72.72.72zm0-4.326c.205.274.449.517.722.723a3.642 3.642 0 00-.723.723 3.666 3.666 0 00-.722-.723c.273-.206.517-.45.722-.723zM37.516 6.45a2.162 2.162 0 01-2.16-2.16.72.72 0 10-1.44 0 2.162 2.162 0 01-2.16 2.16.72.72 0 000 1.442c1.192 0 2.16.969 2.16 2.161a.72.72 0 101.44 0c0-1.192.968-2.161 2.16-2.161a.72.72 0 000-1.441zm-2.88 1.443a3.664 3.664 0 00-.722-.723c.273-.206.516-.449.722-.723.206.274.45.517.722.723a3.69 3.69 0 00-.722.723zM23.932 32.365a.611.611 0 01-.718.534 2.288 2.288 0 01-.236.57c.03.02.059.044.086.07.568.57-.296 1.434-.864.865a.588.588 0 01-.07-.086 2.355 2.355 0 01-.57.236.61.61 0 01.01.11c0 .805-1.221.805-1.221 0 0-.037.003-.074.01-.11a2.291 2.291 0 01-.569-.236.578.578 0 01-.072.086c-.568.569-1.432-.297-.863-.865a.64.64 0 01.085-.071 2.36 2.36 0 01-.236-.57.61.61 0 01-.718-.534h1.508a1.468 1.468 0 002.932 0l1.506.001zm-6.508-.851h.632c-.11-1.282.545-2.308 1.668-2.903v1.124c0 1.619 2.47 1.631 2.47 0v-1.124c1.123.595 1.777 1.62 1.667 2.903h.632a.278.278 0 010 .555h-7.067a.278.278 0 01-.196-.473.262.262 0 01.194-.082zm4.074-3.124c.007.447.002.896.002 1.345 0 .705-1.084.71-1.084 0 0-.448-.004-.898.002-1.345a3.054 3.054 0 011.08 0z" fill="#828282"/></svg>