<svg width="112" height="16" fill="none" xmlns="http://www.w3.org/2000/svg"><path d="M80 11.333l-3.919 2.394 1.066-4.467-3.487-2.987 4.577-.366L80 1.667l1.763 4.24 4.578.366-3.488 2.987 1.066 4.467L80 11.333zm-48 0l-3.919 2.394 1.066-4.467-3.487-2.987 4.577-.366L32 1.667l1.763 4.24 4.578.366-3.488 2.987 1.066 4.467L32 11.333zm24 0l-3.919 2.394 1.066-4.467-3.487-2.987 4.577-.366L56 1.667l1.763 4.24 4.578.366-3.488 2.987 1.066 4.467L56 11.333zm-48 0l-3.919 2.394L5.147 9.26 1.66 6.273l4.577-.366L8 1.667l1.763 4.24 4.578.366-3.488 2.987 1.066 4.467L8 11.333z" fill="#0075FF"/><path d="M104 11.333l-3.919 2.394 1.066-4.467-3.487-2.987 4.577-.366L104 1.667l1.763 4.24 4.578.366-3.488 2.987 1.066 4.467L104 11.333zm0-1.562l1.878 1.146-.511-2.14 1.672-1.43-2.194-.177L104 5.14l-.845 2.031-2.194.176 1.672 1.431-.511 2.14L104 9.771z" fill="#828282"/></svg>