<svg width="112" height="16" fill="none" xmlns="http://www.w3.org/2000/svg"><g clip-path="url(#clip0_77_186)"><path fill-rule="evenodd" clip-rule="evenodd" d="M8 0a8 8 0 100 16A8 8 0 008 0zm4.8 6.711l-2.619 1.895a.33.33 0 00-.121.374l1.005 3.072a.164.164 0 01-.06.187.166.166 0 01-.197 0l-2.612-1.905a.329.329 0 00-.392 0l-2.612 1.905a.164.164 0 01-.196 0 .164.164 0 01-.06-.186L5.94 8.98a.328.328 0 00-.122-.373L3.2 6.71a.164.164 0 01-.06-.186.164.164 0 01.159-.115l3.232.006c.147 0 .273-.09.318-.23l.993-3.077A.164.164 0 018 2.993c.074 0 .136.045.159.115l.993 3.077c.045.14.17.231.318.23l3.23-.005a.167.167 0 01.1.301z" fill="#0075FF"/></g><g clip-path="url(#clip1_77_186)"><path fill-rule="evenodd" clip-rule="evenodd" d="M56 0a8 8 0 100 16 8 8 0 000-16zm4.8 6.711l-2.619 1.895a.33.33 0 00-.121.374l1.005 3.072a.164.164 0 01-.06.187.166.166 0 01-.197 0l-2.612-1.905a.329.329 0 00-.392 0l-2.612 1.905a.164.164 0 01-.196 0 .164.164 0 01-.06-.186L53.94 8.98a.328.328 0 00-.121-.373l-2.62-1.896a.164.164 0 01-.06-.186.164.164 0 01.158-.115l3.233.006c.147 0 .273-.09.318-.23l.993-3.077a.164.164 0 01.158-.115c.074 0 .136.045.159.115l.993 3.077c.045.14.17.231.318.23l3.233-.006c.073 0 .136.045.158.115.023.07 0 .143-.06.186z" fill="#0075FF"/></g><g clip-path="url(#clip2_77_186)"><path fill-rule="evenodd" clip-rule="evenodd" d="M32 0a8 8 0 100 16 8 8 0 000-16zm4.8 6.711l-2.619 1.895a.33.33 0 00-.121.374l1.005 3.072a.164.164 0 01-.06.187.166.166 0 01-.197 0l-2.612-1.905a.329.329 0 00-.392 0l-2.612 1.905a.164.164 0 01-.196 0 .164.164 0 01-.06-.186L29.94 8.98a.328.328 0 00-.122-.373L27.2 6.71a.164.164 0 01-.06-.186.164.164 0 01.159-.115l3.232.006c.147 0 .273-.09.318-.23l.993-3.077A.164.164 0 0132 2.993c.074 0 .136.045.159.115l.993 3.077c.045.14.17.231.318.23l3.233-.006c.073 0 .136.045.158.115.023.07 0 .143-.06.186z" fill="#0075FF"/></g><g clip-path="url(#clip3_77_186)"><path fill-rule="evenodd" clip-rule="evenodd" d="M80 0a8 8 0 100 16 8 8 0 000-16zm4.8 6.711l-2.619 1.895a.33.33 0 00-.121.374l1.004 3.072a.164.164 0 01-.06.187.166.166 0 01-.196 0l-2.612-1.905a.329.329 0 00-.392 0l-2.612 1.905a.164.164 0 01-.196 0 .164.164 0 01-.06-.186L77.94 8.98a.328.328 0 00-.121-.373l-2.62-1.896a.164.164 0 01-.06-.186.164.164 0 01.159-.115l3.232.006c.147 0 .273-.09.318-.23l.993-3.077a.164.164 0 01.158-.115c.074 0 .136.045.159.115l.993 3.077c.045.14.17.231.318.23l3.233-.006c.073 0 .136.045.158.115.023.07 0 .143-.06.186z" fill="#0075FF"/></g><g clip-path="url(#clip4_77_186)"><path fill-rule="evenodd" clip-rule="evenodd" d="M104 0a8 8 0 100 16 8 8 0 000-16zm4.8 6.711l-2.619 1.895a.329.329 0 00-.121.374l1.004 3.072c.023.07 0 .144-.06.187a.165.165 0 01-.196 0l-2.612-1.905a.328.328 0 00-.392 0l-2.612 1.905a.164.164 0 01-.196 0 .163.163 0 01-.061-.186l1.005-3.073a.328.328 0 00-.122-.373L99.2 6.71a.164.164 0 01-.061-.186.164.164 0 01.159-.115l3.232.006c.147 0 .273-.09.318-.23l.993-3.077a.163.163 0 01.158-.115c.074 0 .136.045.159.115l.993 3.077c.045.14.17.231.318.23l3.233-.006c.073 0 .135.045.158.115.023.07 0 .143-.06.186z" fill="#0075FF"/></g><defs><clipPath id="clip0_77_186"><path fill="#fff" d="M0 0h16v16H0z"/></clipPath><clipPath id="clip1_77_186"><path fill="#fff" transform="translate(48)" d="M0 0h16v16H0z"/></clipPath><clipPath id="clip2_77_186"><path fill="#fff" transform="translate(24)" d="M0 0h16v16H0z"/></clipPath><clipPath id="clip3_77_186"><path fill="#fff" transform="translate(72)" d="M0 0h16v16H0z"/></clipPath><clipPath id="clip4_77_186"><path fill="#fff" transform="translate(96)" d="M0 0h16v16H0z"/></clipPath></defs></svg>