<svg width="24" height="24" fill="none" xmlns="http://www.w3.org/2000/svg"><path d="M13.611 12.5l-2.344 1.591V10.91l2.343 1.59z" fill="#3D3D3D"/><path fill-rule="evenodd" clip-rule="evenodd" d="M3.209 3.948a41.226 41.226 0 0117.582 0C22.079 4.23 23 5.388 23 6.73v11.54c0 1.341-.92 2.5-2.209 2.782a41.225 41.225 0 01-17.582 0C1.921 20.77 1 19.612 1 18.27V6.73c0-1.341.92-2.5 2.209-2.782zm7.731 4.944a.722.722 0 00-.753-.037.749.749 0 00-.387.658v5.973a.75.75 0 00.387.659c.239.13.528.116.753-.037l4.4-2.987a.75.75 0 00.327-.621.75.75 0 00-.327-.621l-4.4-2.987z" fill="#3D3D3D"/></svg>