<svg width="40" height="41" fill="none" xmlns="http://www.w3.org/2000/svg"><path d="M26.495 20.341H13.86a.948.948 0 00-.948.95v17.82h14.533V21.29a.95.95 0 00-.949-.95zm.345-11.593l-3.943-.623-1.723-3.87a1.09 1.09 0 00-.997-.602c-.332 0-.643.166-.871.582l-1.807 3.808-3.944.52c-.85.124-1.225 1.163-.602 1.765l2.823 2.826-.727 3.927c-.166.851.727 1.517 1.495 1.122l3.55-1.808.083.041 3.425 1.85c.748.415 1.661-.209 1.516-1.06l-.623-3.948 2.885-2.763c.645-.583.312-1.642-.54-1.767zM10.005 18.892l-2.502-.395-1.094-2.454a.693.693 0 00-.632-.382c-.21 0-.408.106-.553.368L4.08 18.445l-2.501.33c-.54.08-.777.737-.382 1.12l1.791 1.791-.46 2.491a.66.66 0 00.948.711l2.25-1.146.053.026 2.173 1.173c.473.264 1.053-.131.96-.671l-.395-2.503 1.83-1.753a.649.649 0 00-.341-1.122zm28.142 3.198l-2.152-.34-.94-2.11a.593.593 0 00-.543-.33c-.181 0-.351.091-.476.318l-.985 2.077-2.151.283c-.464.069-.668.635-.328.964l1.54 1.541-.397 2.141a.567.567 0 00.815.613l1.936-.986.046.022 1.868 1.008c.409.227.906-.114.827-.578l-.34-2.153 1.574-1.507a.557.557 0 00-.294-.963zM9.379 26.575H2.302a.948.948 0 00-.948.949v11.587h8.973V27.524a.948.948 0 00-.948-.949zm28.674 2.077h-7.078a.948.948 0 00-.948.95v9.509H39V29.6a.948.948 0 00-.947-.949z" fill="#828282"/></svg>