<svg width="40" height="41" fill="none" xmlns="http://www.w3.org/2000/svg"><path d="M37.961 9.28c-5.874-.6-7.592-3.919-7.672-4.079-.2-.4-.6-.64-.999-.64-.44 0-.839.24-1.039.68 0 .04-1.678 3.48-7.632 4.08-.56.04-.999.56-.999 1.119v6.118c0 1.8.56 3.48 1.359 4.92h1.758c2.118 0 3.876 1.759 3.876 3.878 0 .64-.12 1.2-.4 1.72 1.359 1 2.478 1.56 2.598 1.64.16.08.32.12.52.12.159 0 .359-.04.519-.12.36-.2 9.15-4.8 9.15-12.158V10.4c-.04-.56-.48-1.08-1.039-1.12zm-4.195 5.599l-4.915 4.959c-.24.2-.52.32-.8.32s-.599-.12-.799-.32l-2.477-2.48c-.44-.44-.44-1.16 0-1.6.44-.44 1.159-.44 1.598 0l1.639 1.64 4.155-4.159c.44-.44 1.159-.44 1.599 0 .479.48.479 1.2 0 1.64z" fill="#828282"/><path d="M24.336 25.317c0-.88-.72-1.6-1.599-1.6s-5.314.04-6.233.04c-.48 0-.84-.48-.68-.96.48-1.44 1.32-4.039 1.479-4.839.36-2-2.717-2.599-3.317-1.04-.599 1.44-2.877 5.92-5.554 7.559-.32.2-.52.56-.52.92v9.077c0 .52 2.159 2.08 5.155 2.08h8.471c.88 0 1.599-.72 1.599-1.6 0-.76-.52-1.36-1.199-1.56-.04 0-.04-.04 0-.04.88 0 1.598-.72 1.598-1.6 0-.759-.52-1.399-1.198-1.559-.04 0-.04-.04 0-.04.879 0 1.598-.72 1.598-1.6 0-.76-.52-1.399-1.199-1.559-.04 0-.04-.04 0-.04.88-.04 1.599-.76 1.599-1.64zm-19.74-1.081H2a.99.99 0 00-.999 1v9.558c0 .56.44 1 .999 1h2.597a.99.99 0 001-1v-9.558c0-.56-.44-1-1-1z" fill="#828282"/></svg>