<svg width="40" height="41" fill="none" xmlns="http://www.w3.org/2000/svg"><path d="M37.17 19.042a2.307 2.307 0 00-1.245.07 14.12 14.12 0 00-4.58-7.128 5.138 5.138 0 01.819-3.854 1.03 1.03 0 00-.298-1.38 1.026 1.026 0 00-.738-.172c-2.617.338-4.117 1.552-4.959 2.662a14.057 14.057 0 00-3.012-.505.24.24 0 00-.055 0 12.543 12.543 0 01-4.107 14.176 12.525 12.525 0 01-14.741.442.337.337 0 00-.024.137 14.082 14.082 0 004.692 9.86 4.504 4.504 0 011.551 3.352v1.661c0 .51.413.924.923.924h5.61c.51 0 .924-.414.924-.924v-1.431h4.459v1.424c0 .51.413.923.923.923h5.63c.51 0 .923-.413.923-.923V37.09a4.59 4.59 0 011.574-3.492 14.116 14.116 0 004.497-7.106c.401.135.832.158 1.245.066A2.398 2.398 0 0039 24.192v-2.77a2.408 2.408 0 00-1.83-2.38zm-6.907.244a1.391 1.391 0 01-1.392-1.393 1.395 1.395 0 011.392-1.393 1.393 1.393 0 011.392 1.393 1.393 1.393 0 01-1.392 1.402v-.009zm-18.957 4.025c2.733 0 5.354-1.087 7.287-3.02a10.322 10.322 0 00.002-14.587 10.302 10.302 0 00-14.574-.003 10.317 10.317 0 00-3.02 7.292 10.333 10.333 0 003.02 7.292 10.316 10.316 0 007.285 3.026zM10.45 7.734v-.776a.823.823 0 111.644 0v.655a7.195 7.195 0 011.551.222.974.974 0 01-.248 1.913.942.942 0 01-.267-.038 5.133 5.133 0 00-1.485-.214c-1.09 0-1.442.47-1.442.94 0 .554.589.908 2.012 1.443 1.997.706 2.803 1.63 2.803 3.143s-1.058 2.77-2.99 3.104v.916a.822.822 0 11-1.643 0v-.776a7.75 7.75 0 01-2.016-.388.974.974 0 01-.644-1.164l.019-.082a.95.95 0 01.923-.694c.11 0 .218.019.322.055a5.638 5.638 0 001.815.31c.957 0 1.613-.388 1.613-1.04s-.54-1.04-1.78-1.463c-1.795-.605-3.02-1.443-3.02-3.073-.001-1.48 1.038-2.64 2.833-2.993z" fill="#828282"/></svg>