<svg width="30" height="28" fill="none" xmlns="http://www.w3.org/2000/svg"><path d="M15.676 6.509a1.621 1.621 0 11-3.243 0 1.621 1.621 0 013.243 0zm-.203 16.459a12.412 12.412 0 01-2.843-1.558 1.622 1.622 0 001.425 2.395 1.632 1.632 0 001.418-.837z" fill="#0075FF"/><path d="M14.054 24.886a2.702 2.702 0 01-2.277-4.159 12.45 12.45 0 01-3.863-6.26 2.703 2.703 0 11-.218-5.17A12.31 12.31 0 019.61 4.482 11.33 11.33 0 00.001 15.697c0 6.259 5.092 11.35 11.35 11.35 2.98.005 5.84-1.166 7.96-3.258-.95-.05-1.89-.209-2.804-.474a2.724 2.724 0 01-2.453 1.57zM.542 15.156a1.622 1.622 0 113.244.002 1.622 1.622 0 01-3.244-.001zm4.324 7.568a2.705 2.705 0 01-2.703-2.703 2.704 2.704 0 014.614-1.91 2.705 2.705 0 010 3.822 2.703 2.703 0 01-1.911.79zm4.324 2.702a1.622 1.622 0 110-3.244 1.622 1.622 0 010 3.244z" fill="#0075FF"/><path d="M7.027 10.292a1.622 1.622 0 10.661 3.101 12.434 12.434 0 01-.126-3.01 1.652 1.652 0 00-.535-.09zm-4.323 4.865a.54.54 0 11-1.082 0 .54.54 0 011.082 0zm23.781-3.243c.186.001.37-.022.55-.067a9.865 9.865 0 01-.05-.753v-.467c.01-.476.056-.95.139-1.419h-.007a8.918 8.918 0 01-.288-.02l-.098-.008a11.245 11.245 0 01-.203-.022l-.102-.013a8.928 8.928 0 01-.236-.036l-.055-.008a7.09 7.09 0 01-.282-.055l-.081-.018a5.532 5.532 0 01-.211-.05l-.08-.02a7.385 7.385 0 01-.26-.074l-.014-.004a7.027 7.027 0 01-.291-.096l-.02-.007c-.09-.032-.177-.067-.264-.1l-.015-.006a2.161 2.161 0 001.868 3.243zM9.73 23.805a.54.54 0 11-1.081 0 .54.54 0 011.081 0zm-3.243-3.784a1.621 1.621 0 11-3.242 0 1.621 1.621 0 013.242 0zM20.54 8.67a.54.54 0 11-1.082 0 .54.54 0 011.082 0zm-1.081 10.27a.54.54 0 11-1.081 0 .54.54 0 011.081 0zm5.946-2.702a1.621 1.621 0 11-3.243 0 1.621 1.621 0 013.243 0zm-7.568-3.243a.54.54 0 11-1.081 0 .54.54 0 011.081 0z" fill="#0075FF"/><path d="M27.212 12.912a3.243 3.243 0 01-3.56-4.735 6.882 6.882 0 01-.144-.092c-.917-.608-1.537-1.399-1.795-2.271a4.863 4.863 0 01-6.08-4.71c0-.078 0-.154.005-.231a11.306 11.306 0 00-4.39 3.21.548.548 0 01-.123.15 11.312 11.312 0 00-2.447 5.885v.018a11.51 11.51 0 00-.068 1.238c0 6.258 5.092 11.35 11.35 11.35A11.374 11.374 0 0030 16.663c-1.303-.406-2.347-1.833-2.788-3.751zm-7.213-5.863a1.622 1.622 0 110 3.245 1.622 1.622 0 010-3.245zm-5.945-3.242a2.705 2.705 0 012.702 2.702 2.705 2.705 0 01-2.702 2.702 2.705 2.705 0 01-2.702-2.702 2.705 2.705 0 012.702-2.702zm-2.162 12.43a2.705 2.705 0 01-2.702-2.702 2.705 2.705 0 012.702-2.702 2.705 2.705 0 012.703 2.702 2.705 2.705 0 01-2.703 2.703zm3.784-3.242a1.622 1.622 0 113.243 0 1.622 1.622 0 01-3.244 0zm3.242 7.567a1.622 1.622 0 11.001-3.244 1.622 1.622 0 010 3.244zm4.865-1.622a2.705 2.705 0 01-2.703-2.702 2.704 2.704 0 012.703-2.703 2.705 2.705 0 012.702 2.703 2.705 2.705 0 01-2.702 2.702z" fill="#0075FF"/><path d="M13.514 13.535a1.621 1.621 0 11-3.243 0 1.621 1.621 0 013.243 0z" fill="#0075FF"/></svg>