<svg width="40" height="40" fill="none" xmlns="http://www.w3.org/2000/svg"><g clip-path="url(#clip0_29_151)" fill="#828282"><path d="M20.69 34.8H3.448V18.248h23.449v3.287a.69.69 0 001.379 0v-3.287h1.393c.381 0 .69-.39.69-.77a.81.81 0 00-.142-.46L24.755 6.155c-.116-.233-.355-.32-.616-.32h-8.966V2.913c0-.38-.31-.529-.69-.529H8.966c-.381 0-.69.148-.69.529v2.92h-2.07c-.26 0-.499.066-.616.3L.073 17.128a.811.811 0 00.03.731c.126.204.347.388.587.388h1.379v17.08c0 .381.309.851.69.851h17.93a.69.69 0 000-1.378zM9.655 3.765h4.138v2.07H9.655v-2.07zM6.633 7.213h17.079l4.827 9.656H1.806l4.827-9.656z"/><path d="M20 22.386a.69.69 0 00-.69-.69h-8.275a.69.69 0 00-.69.69v8.276c0 .38.309.69.69.69h8.275a.69.69 0 00.69-.69v-8.276zm-1.38 3.448h-2.758v-2.758h2.759v2.758zm-4.137-2.758v2.758h-2.759v-2.758h2.759zm-2.759 4.137h2.759v2.759h-2.759v-2.759zm4.138 2.759v-2.759h2.759v2.759h-2.759zm14.383-6.282L36.005.858a.69.69 0 10-1.337-.337L28.91 23.347c-2.232.024-4.21 2.597-4.838 5.086a.675.675 0 00.004.322l-1.99 4.761a.69.69 0 00.469.935l2.12.535a.694.694 0 00.464-.045l.964-.457-.036.142a.69.69 0 00.5.837l4.011 1.012a.691.691 0 00.565-.104.688.688 0 00.29-.496l.506-5.137a.679.679 0 00.157-.28c.647-2.57.015-5.734-1.85-6.768zm-.107 11.251l-2.567-.647.226-.891a.69.69 0 00-.964-.791l-2.062.977-1.104-.278 1.614-3.86 5.268 1.328-.41 4.162zm.755-5.5l-5.282-1.331c.742-2.04 2.42-3.658 3.652-3.347 1.247.314 1.96 2.483 1.63 4.679zM18.62 12.57a2.07 2.07 0 012.07 2.069.69.69 0 001.379 0 2.07 2.07 0 012.069-2.07.69.69 0 000-1.379 2.07 2.07 0 01-2.069-2.068.69.69 0 00-1.38 0 2.07 2.07 0 01-2.068 2.069.69.69 0 000 1.379zm2.76-1.382c.196.262.43.495.691.692-.261.196-.495.43-.692.691a3.506 3.506 0 00-.692-.692 3.48 3.48 0 00.692-.69zm17.93 16.554a2.07 2.07 0 01-2.069-2.069.69.69 0 00-1.379 0 2.07 2.07 0 01-2.069 2.07.69.69 0 000 1.379 2.07 2.07 0 012.07 2.069.69.69 0 001.378 0 2.07 2.07 0 012.07-2.07.69.69 0 000-1.379zm-2.758 1.381a3.517 3.517 0 00-.692-.692c.261-.196.495-.43.692-.691.197.262.43.495.692.692-.262.196-.495.43-.692.691z"/></g><defs><clipPath id="clip0_29_151"><path fill="#fff" d="M0 0h40v40H0z"/></clipPath></defs></svg>