<svg width="36" height="32" fill="none" xmlns="http://www.w3.org/2000/svg"><path d="M35.88 19.147l-6.188-7.875a.563.563 0 00-.442-.215H6.75a.562.562 0 00-.442.215L.12 19.147a.563.563 0 00.442.91h1.125v10.688c0 .31.252.562.563.562h31.5a.562.562 0 00.563-.562V20.056h1.125a.563.563 0 00.442-.91zM24.187 30.182H11.812V20.057h12.375v10.125zm-1.398-11.25H13.21l-5.303-6.75h20.185l-5.303 6.75zM5.624 30.182v-3.375h2.25v3.375h-2.25zm3.376 0v-3.937a.562.562 0 00-.563-.563H5.062a.562.562 0 00-.563.563v3.937H2.812V19.495a.562.562 0 00-.563-.563h-.53l5.03-6.403 5.03 6.402h-.53a.562.562 0 00-.562.563v10.688H9zm19.125 0v-3.375h2.25v3.375h-2.25zm5.625-11.25a.562.562 0 00-.563.563v10.687H31.5v-3.937a.562.562 0 00-.563-.563h-3.375a.562.562 0 00-.562.563v3.937h-1.688V19.495a.562.562 0 00-.562-.563h-.53l5.03-6.403 5.03 6.402h-.53v.001z" fill="#828282"/><path d="M21.937 21.745h-7.875a.562.562 0 00-.562.562v5.625c0 .31.25.563.562.563h7.875a.562.562 0 00.563-.563v-5.625a.563.563 0 00-.563-.562zm-.562 2.812h-2.813V22.87h2.813v1.687zm-3.938-1.687v1.687h-2.812V22.87h2.812zm-2.812 2.812h2.812v1.688h-2.812v-1.688zm3.937 1.688v-1.688h2.813v1.688h-2.813zM28.688 7.682c.93 0 1.687.757 1.687 1.687a.562.562 0 101.125 0c0-.93.757-1.687 1.688-1.687a.562.562 0 100-1.125A1.69 1.69 0 0131.5 4.869a.562.562 0 10-1.125 0 1.69 1.69 0 01-1.688 1.688.562.562 0 100 1.125zm2.25-1.127c.16.213.35.404.564.564a2.83 2.83 0 00-.564.565 2.831 2.831 0 00-.565-.565c.214-.16.404-.35.564-.564zM2.812 7.682c.93 0 1.687.757 1.687 1.687a.562.562 0 101.125 0c0-.93.758-1.687 1.688-1.687a.562.562 0 100-1.125 1.69 1.69 0 01-1.688-1.688.562.562 0 10-1.125 0 1.69 1.69 0 01-1.687 1.688.562.562 0 100 1.125zm2.25-1.127c.16.213.35.404.564.564-.213.16-.404.35-.564.565a2.812 2.812 0 00-.564-.565c.214-.16.404-.35.564-.564zM22.489.7a4.486 4.486 0 00-3.927 2.335h-6.26a2.128 2.128 0 00-2.123 2.122c0 1.167.955 2.122 2.122 2.122h1.486c.36 0 .636-.275.636-.636a.625.625 0 00-.636-.636H12.3a.852.852 0 01-.849-.85c0-.466.382-.849.85-.849h6.664a.653.653 0 00.594-.382 3.166 3.166 0 012.929-1.952 3.18 3.18 0 013.183 3.183 3.18 3.18 0 01-3.183 3.184 3.167 3.167 0 01-2.93-1.953.653.653 0 00-.593-.381h-2.42a.625.625 0 00-.636.636c0 .36.276.636.636.636h2.016a4.461 4.461 0 003.927 2.335 4.456 4.456 0 004.457-4.457A4.456 4.456 0 0022.489.7z" fill="#828282"/><path d="M23.126 6.007V4.309a.625.625 0 00-.637-.637.625.625 0 00-.636.637v1.698c0 .36.276.636.636.636s.637-.276.637-.636z" fill="#828282"/></svg>