<svg width="40" height="40" fill="none" xmlns="http://www.w3.org/2000/svg"><g clip-path="url(#clip0_75_100)"><path fill-rule="evenodd" clip-rule="evenodd" d="M19.502 10.112a9.388 9.388 0 110 18.776 9.388 9.388 0 010-18.776zm8.86 21.797l.676-2.364a.608.608 0 00-.608-.775l-2.414-.087a.607.607 0 10-.042 1.214l.82.029c-.723.507-1.502.942-2.326 1.29a12.735 12.735 0 01-12.969-1.828A12.731 12.731 0 017.06 16.835a12.681 12.681 0 011.444-3.729.608.608 0 10-1.052-.608 13.889 13.889 0 00-1.582 4.085 13.949 13.949 0 004.864 13.748 13.94 13.94 0 0016.619.689l-.16.556a.608.608 0 001.17.334zm3.192-5.407a13.895 13.895 0 001.58-4.086A13.945 13.945 0 0011.654 7.98l.16-.557a.608.608 0 10-1.172-.333l-.675 2.365a.608.608 0 00.607.775l2.415.087a.607.607 0 10.042-1.214l-.82-.03c.71-.498 1.476-.926 2.287-1.273a12.729 12.729 0 0117.446 14.364 12.682 12.682 0 01-1.443 3.728.608.608 0 101.054.61zM3.695 28.686a18.211 18.211 0 01-2.074-5.36A18.295 18.295 0 018 5.289a18.297 18.297 0 0118.693-2.603 18.183 18.183 0 013.883 2.265l-1.894.068a.608.608 0 00.042 1.214l3.44-.123a.61.61 0 00.607-.775l-.957-3.351a.609.609 0 10-1.171.333l.424 1.483a19.388 19.388 0 00-3.898-2.232A19.51 19.51 0 007.233 4.346 19.513 19.513 0 00.43 23.579a19.418 19.418 0 002.213 5.716.608.608 0 001.052-.61zM35.31 10.315a18.201 18.201 0 012.073 5.358 18.295 18.295 0 01-6.378 18.038 18.303 18.303 0 01-18.637 2.628 18.213 18.213 0 01-3.94-2.29l1.895-.067a.608.608 0 00-.042-1.214l-3.44.123a.609.609 0 00-.607.775l.956 3.351a.609.609 0 101.171-.333L7.938 35.2a19.423 19.423 0 003.96 2.257 19.51 19.51 0 0019.874-2.804 19.515 19.515 0 006.803-19.234 19.442 19.442 0 00-2.212-5.715.608.608 0 00-1.053.61zm-9.869 8.679h-.644a.506.506 0 000 1.012h.644a.506.506 0 000-1.012zm-6.532-2.8V19.5c0 .234.136.438.334.534l2.17 1.253a.593.593 0 00.594-1.024l-1.911-1.104v-2.966a.594.594 0 00-1.187 0zm4.435-1.252l-.455.455a.506.506 0 10.716.716l.455-.455a.506.506 0 10-.716-.716zm-4.349-1.38v.643a.506.506 0 001.013 0v-.644a.506.506 0 00-1.013 0zm-4.05 2.096l.455.455a.506.506 0 10.716-.716l-.455-.455a.506.506 0 10-.716.716zm-1.382 4.349h.644a.506.506 0 000-1.013h-.644a.506.506 0 000 1.013zm2.098 4.051l.455-.455a.506.506 0 10-.716-.716l-.455.455a.506.506 0 10.716.716zm4.348 1.382v-.644a.507.507 0 00-1.013 0v.644a.506.506 0 001.013 0zm4.051-2.098l-.455-.455a.506.506 0 10-.716.716l.455.455a.506.506 0 10.716-.716zm-4.558-11.586a7.744 7.744 0 100 15.488 7.744 7.744 0 000-15.488z" fill="#828282"/></g><defs><clipPath id="clip0_75_100"><path fill="#fff" d="M0 0h40v40H0z"/></clipPath></defs></svg>