<svg width="40" height="40" fill="none" xmlns="http://www.w3.org/2000/svg"><path d="M2.759 9.897a.69.69 0 101.379 0 2.07 2.07 0 012.069-2.07.69.69 0 100-1.379A2.07 2.07 0 014.138 4.38a.69.69 0 10-1.38 0A2.07 2.07 0 01.69 6.45a.69.69 0 100 1.379 2.07 2.07 0 012.069 2.069zm.69-3.451c.196.262.43.495.691.692a3.49 3.49 0 00-.692.692 3.51 3.51 0 00-.692-.692 3.49 3.49 0 00.692-.692zM39.31 28.518a2.07 2.07 0 01-2.069-2.07.69.69 0 10-1.379 0 2.07 2.07 0 01-2.069 2.07.69.69 0 100 1.38 2.07 2.07 0 012.069 2.068.69.69 0 101.38 0 2.07 2.07 0 012.068-2.069.69.69 0 100-1.38zm-2.758 1.381a3.513 3.513 0 00-.692-.692c.261-.197.495-.43.692-.692.197.262.43.495.692.692a3.49 3.49 0 00-.692.692z" fill="#828282"/><path d="M33.449 33.345h-2.07v-20a.69.69 0 00-.69-.69h-1.378V9.207a.69.69 0 00-.69-.69h-1.38V7.138h1.38a.69.69 0 00.69-.69V3.69a.69.69 0 00-.69-.69H16.207a.69.69 0 00-.69.69v2.758c0 .382.31.69.69.69h1.38v1.38h-1.38a.69.69 0 00-.69.689v3.448H4.482a.69.69 0 00-.69.69v20H1.725a.69.69 0 00-.69.69v2.759c0 .381.31.69.69.69H33.45a.69.69 0 00.69-.69v-2.759a.69.69 0 00-.69-.69zM16.897 4.38H27.93v1.38H16.896V4.38zm2.069 2.759h6.896v1.38h-6.896v-1.38zm-2.07 2.759h11.035v2.758h-2.069v-1.379a.69.69 0 10-1.38 0v1.38h-1.378v-1.38a.69.69 0 10-1.38 0v1.38h-1.38v-1.38a.69.69 0 10-1.379 0v1.38h-2.069v-2.76zM5.172 14.035H30v19.31h-7.586v-4.827a.69.69 0 00-.69-.69h-8.276a.69.69 0 00-.69.69v4.827H5.172v-19.31zm8.966 19.31v-4.138h2.758v4.138h-2.758zm4.138-4.138h2.759v4.138h-2.76v-4.138zm14.483 6.897H2.413v-1.38H32.76v1.38z" fill="#828282"/><path d="M8.62 14.724a.69.69 0 00-.69.69v1.97a.69.69 0 101.38 0v-1.97a.69.69 0 00-.69-.69zm0 3.941a.69.69 0 00-.69.69v1.97a.69.69 0 101.38 0v-1.97a.69.69 0 00-.69-.69zm0 3.941a.69.69 0 00-.69.69v1.97a.69.69 0 101.38 0v-1.97a.69.69 0 00-.69-.69zm0 3.942a.69.69 0 00-.69.69v1.97a.69.69 0 101.38 0v-1.97a.69.69 0 00-.69-.69zm2.76-11.824a.69.69 0 00-.69.69v1.97a.69.69 0 101.379 0v-1.97a.69.69 0 00-.69-.69zm0 3.941a.69.69 0 00-.69.69v1.97a.69.69 0 101.379 0v-1.97a.69.69 0 00-.69-.69zm0 3.941a.69.69 0 00-.69.69v1.97a.69.69 0 101.379 0v-1.97a.69.69 0 00-.69-.69zm3.448-4.532a.69.69 0 00.69-.69v-1.97a.69.69 0 10-1.38 0v1.97c0 .382.309.69.69.69zm0 3.941a.69.69 0 00.69-.69v-1.97a.69.69 0 10-1.38 0v1.97c0 .382.309.69.69.69zm0 3.941a.69.69 0 00.69-.69v-1.97a.69.69 0 10-1.38 0v1.97c0 .382.309.69.69.69zm2.758-7.882a.69.69 0 00.69-.69v-1.97a.69.69 0 10-1.38 0v1.97c0 .382.31.69.69.69zm0 3.941a.69.69 0 00.69-.69v-1.97a.69.69 0 10-1.38 0v1.97c0 .382.31.69.69.69zm0 3.941a.69.69 0 00.69-.69v-1.97a.69.69 0 10-1.38 0v1.97c0 .382.31.69.69.69zm2.759-7.882a.69.69 0 00.69-.69v-1.97a.69.69 0 10-1.38 0v1.97c0 .382.31.69.69.69zm0 3.941a.69.69 0 00.69-.69v-1.97a.69.69 0 10-1.38 0v1.97c0 .382.31.69.69.69zm0 3.941a.69.69 0 00.69-.69v-1.97a.69.69 0 10-1.38 0v1.97c0 .382.31.69.69.69zm3.448-7.882a.69.69 0 00.69-.69v-1.97a.69.69 0 10-1.38 0v1.97c0 .382.31.69.69.69zm0 3.941a.69.69 0 00.69-.69v-1.97a.69.69 0 10-1.38 0v1.97c0 .382.31.69.69.69zm0 3.941a.69.69 0 00.69-.69v-1.97a.69.69 0 10-1.38 0v1.97c0 .382.31.69.69.69zm2.759-7.882a.69.69 0 00.69-.69v-1.97a.69.69 0 10-1.38 0v1.97c0 .382.31.69.69.69zm0 3.941a.69.69 0 00.69-.69v-1.97a.69.69 0 10-1.38 0v1.97c0 .382.31.69.69.69zm0 3.941a.69.69 0 00.69-.69v-1.97a.69.69 0 10-1.38 0v1.97c0 .382.31.69.69.69zm0 3.941a.69.69 0 00.69-.69v-1.97a.69.69 0 10-1.38 0v1.97c0 .382.31.69.69.69z" fill="#828282"/></svg>