<svg width="24" height="24" fill="none" xmlns="http://www.w3.org/2000/svg"><path d="M20.739 7.486c.014.197.014.394.014.59C20.753 14.082 16.216 21 7.923 21 5.37 21 2.997 20.255 1 18.961c.363.042.712.056 1.089.056a8.988 8.988 0 005.598-1.94 4.521 4.521 0 01-4.216-3.15c.279.042.558.07.851.07.405 0 .81-.056 1.187-.155a4.535 4.535 0 01-3.616-4.458v-.056a4.51 4.51 0 002.038.577 4.548 4.548 0 01-2.01-3.783c0-.844.224-1.617.614-2.292a12.786 12.786 0 009.297 4.753 5.163 5.163 0 01-.111-1.04C11.72 5.038 13.73 3 16.23 3c1.298 0 2.47.548 3.294 1.434a8.837 8.837 0 002.862-1.097 4.524 4.524 0 01-1.982 2.504A8.987 8.987 0 0023 5.138a9.73 9.73 0 01-2.261 2.348z" fill="#3D3D3D"/></svg>